<mxfile host="app.diagrams.net" agent="Mozilla/5.0 (Windows NT 10.0; Win64; x64) AppleWebKit/537.36 (KHTML, like Gecko) Chrome/138.0.0.0 Safari/537.36" version="27.0.9">
  <diagram name="Seite-1" id="p_y_RWC4hwnAIl9erWtl">
    <mxGraphModel dx="1722" dy="2093" grid="1" gridSize="10" guides="1" tooltips="1" connect="1" arrows="1" fold="1" page="1" pageScale="1" pageWidth="827" pageHeight="1169" math="0" shadow="0">
      <root>
        <mxCell id="0" />
        <mxCell id="1" parent="0" />
        <mxCell id="KRQcS20CmdTBOLklNarJ-19" value="" style="edgeStyle=orthogonalEdgeStyle;rounded=0;orthogonalLoop=1;jettySize=auto;html=1;endArrow=none;startFill=0;" edge="1" parent="1" source="KRQcS20CmdTBOLklNarJ-1" target="KRQcS20CmdTBOLklNarJ-18">
          <mxGeometry relative="1" as="geometry" />
        </mxCell>
        <mxCell id="KRQcS20CmdTBOLklNarJ-21" value="" style="edgeStyle=orthogonalEdgeStyle;rounded=0;orthogonalLoop=1;jettySize=auto;html=1;endArrow=none;startFill=0;" edge="1" parent="1" source="KRQcS20CmdTBOLklNarJ-1" target="KRQcS20CmdTBOLklNarJ-17">
          <mxGeometry relative="1" as="geometry" />
        </mxCell>
        <mxCell id="KRQcS20CmdTBOLklNarJ-37" value="n" style="edgeLabel;html=1;align=center;verticalAlign=middle;resizable=0;points=[];" vertex="1" connectable="0" parent="KRQcS20CmdTBOLklNarJ-21">
          <mxGeometry x="-0.2133" y="-3" relative="1" as="geometry">
            <mxPoint y="10" as="offset" />
          </mxGeometry>
        </mxCell>
        <mxCell id="KRQcS20CmdTBOLklNarJ-47" value="" style="edgeStyle=orthogonalEdgeStyle;rounded=0;orthogonalLoop=1;jettySize=auto;html=1;endArrow=none;startFill=0;" edge="1" parent="1" source="KRQcS20CmdTBOLklNarJ-1" target="KRQcS20CmdTBOLklNarJ-18">
          <mxGeometry relative="1" as="geometry" />
        </mxCell>
        <mxCell id="KRQcS20CmdTBOLklNarJ-1" value="TodoTodolist" style="rounded=0;whiteSpace=wrap;html=1;" vertex="1" parent="1">
          <mxGeometry x="370" y="240" width="120" height="60" as="geometry" />
        </mxCell>
        <mxCell id="KRQcS20CmdTBOLklNarJ-44" value="" style="edgeStyle=orthogonalEdgeStyle;rounded=0;orthogonalLoop=1;jettySize=auto;html=1;endArrow=none;startFill=0;" edge="1" parent="1" source="KRQcS20CmdTBOLklNarJ-2" target="KRQcS20CmdTBOLklNarJ-9">
          <mxGeometry relative="1" as="geometry" />
        </mxCell>
        <mxCell id="KRQcS20CmdTBOLklNarJ-45" value="n" style="edgeLabel;html=1;align=center;verticalAlign=middle;resizable=0;points=[];" vertex="1" connectable="0" parent="KRQcS20CmdTBOLklNarJ-44">
          <mxGeometry x="-0.1417" y="-3" relative="1" as="geometry">
            <mxPoint x="13" y="-13" as="offset" />
          </mxGeometry>
        </mxCell>
        <mxCell id="KRQcS20CmdTBOLklNarJ-2" value="hat" style="rhombus;whiteSpace=wrap;html=1;" vertex="1" parent="1">
          <mxGeometry x="250" y="-10" width="80" height="80" as="geometry" />
        </mxCell>
        <mxCell id="KRQcS20CmdTBOLklNarJ-43" value="" style="edgeStyle=orthogonalEdgeStyle;rounded=0;orthogonalLoop=1;jettySize=auto;html=1;endArrow=none;startFill=0;" edge="1" parent="1" source="KRQcS20CmdTBOLklNarJ-6" target="KRQcS20CmdTBOLklNarJ-2">
          <mxGeometry relative="1" as="geometry" />
        </mxCell>
        <mxCell id="KRQcS20CmdTBOLklNarJ-46" value="1" style="edgeLabel;html=1;align=center;verticalAlign=middle;resizable=0;points=[];" vertex="1" connectable="0" parent="KRQcS20CmdTBOLklNarJ-43">
          <mxGeometry x="-0.1222" y="2" relative="1" as="geometry">
            <mxPoint as="offset" />
          </mxGeometry>
        </mxCell>
        <mxCell id="KRQcS20CmdTBOLklNarJ-6" value="TodoPercent" style="rounded=0;whiteSpace=wrap;html=1;" vertex="1" parent="1">
          <mxGeometry x="70" width="120" height="60" as="geometry" />
        </mxCell>
        <mxCell id="KRQcS20CmdTBOLklNarJ-28" value="" style="edgeStyle=orthogonalEdgeStyle;rounded=0;orthogonalLoop=1;jettySize=auto;html=1;endArrow=none;startFill=0;" edge="1" parent="1" source="KRQcS20CmdTBOLklNarJ-9" target="KRQcS20CmdTBOLklNarJ-27">
          <mxGeometry relative="1" as="geometry" />
        </mxCell>
        <mxCell id="KRQcS20CmdTBOLklNarJ-31" value="1" style="edgeLabel;html=1;align=center;verticalAlign=middle;resizable=0;points=[];" vertex="1" connectable="0" parent="KRQcS20CmdTBOLklNarJ-28">
          <mxGeometry x="-0.4635" y="-5" relative="1" as="geometry">
            <mxPoint x="-7" y="-15" as="offset" />
          </mxGeometry>
        </mxCell>
        <mxCell id="KRQcS20CmdTBOLklNarJ-9" value="TodoState" style="rounded=0;whiteSpace=wrap;html=1;" vertex="1" parent="1">
          <mxGeometry x="370" width="120" height="60" as="geometry" />
        </mxCell>
        <mxCell id="KRQcS20CmdTBOLklNarJ-10" value="TodoStatehistory" style="rounded=0;whiteSpace=wrap;html=1;" vertex="1" parent="1">
          <mxGeometry x="690" width="120" height="60" as="geometry" />
        </mxCell>
        <mxCell id="KRQcS20CmdTBOLklNarJ-11" value="TodoRememberme" style="rounded=0;whiteSpace=wrap;html=1;" vertex="1" parent="1">
          <mxGeometry x="90" y="240" width="120" height="60" as="geometry" />
        </mxCell>
        <mxCell id="KRQcS20CmdTBOLklNarJ-34" value="" style="edgeStyle=orthogonalEdgeStyle;rounded=0;orthogonalLoop=1;jettySize=auto;html=1;endArrow=none;startFill=0;" edge="1" parent="1" source="KRQcS20CmdTBOLklNarJ-12" target="KRQcS20CmdTBOLklNarJ-25">
          <mxGeometry relative="1" as="geometry" />
        </mxCell>
        <mxCell id="KRQcS20CmdTBOLklNarJ-42" value="1" style="edgeLabel;html=1;align=center;verticalAlign=middle;resizable=0;points=[];" vertex="1" connectable="0" parent="KRQcS20CmdTBOLklNarJ-34">
          <mxGeometry x="0.22" y="-1" relative="1" as="geometry">
            <mxPoint x="9" y="21" as="offset" />
          </mxGeometry>
        </mxCell>
        <mxCell id="KRQcS20CmdTBOLklNarJ-12" value="TodoRememberHistory" style="rounded=0;whiteSpace=wrap;html=1;" vertex="1" parent="1">
          <mxGeometry x="70" y="470" width="160" height="60" as="geometry" />
        </mxCell>
        <mxCell id="KRQcS20CmdTBOLklNarJ-35" value="" style="edgeStyle=orthogonalEdgeStyle;rounded=0;orthogonalLoop=1;jettySize=auto;html=1;endArrow=none;startFill=0;" edge="1" parent="1" source="KRQcS20CmdTBOLklNarJ-13" target="KRQcS20CmdTBOLklNarJ-26">
          <mxGeometry relative="1" as="geometry" />
        </mxCell>
        <mxCell id="KRQcS20CmdTBOLklNarJ-40" value="1" style="edgeLabel;html=1;align=center;verticalAlign=middle;resizable=0;points=[];" vertex="1" connectable="0" parent="KRQcS20CmdTBOLklNarJ-35">
          <mxGeometry x="-0.1133" relative="1" as="geometry">
            <mxPoint as="offset" />
          </mxGeometry>
        </mxCell>
        <mxCell id="KRQcS20CmdTBOLklNarJ-13" value="TodoEnddate" style="rounded=0;whiteSpace=wrap;html=1;" vertex="1" parent="1">
          <mxGeometry x="370" y="470" width="120" height="60" as="geometry" />
        </mxCell>
        <mxCell id="KRQcS20CmdTBOLklNarJ-22" value="" style="edgeStyle=orthogonalEdgeStyle;rounded=0;orthogonalLoop=1;jettySize=auto;html=1;endArrow=none;startFill=0;" edge="1" parent="1" source="KRQcS20CmdTBOLklNarJ-17" target="KRQcS20CmdTBOLklNarJ-9">
          <mxGeometry relative="1" as="geometry" />
        </mxCell>
        <mxCell id="KRQcS20CmdTBOLklNarJ-38" value="1" style="edgeLabel;html=1;align=center;verticalAlign=middle;resizable=0;points=[];" vertex="1" connectable="0" parent="KRQcS20CmdTBOLklNarJ-22">
          <mxGeometry x="0.6533" relative="1" as="geometry">
            <mxPoint x="10" y="2" as="offset" />
          </mxGeometry>
        </mxCell>
        <mxCell id="KRQcS20CmdTBOLklNarJ-17" value="hat" style="rhombus;whiteSpace=wrap;html=1;" vertex="1" parent="1">
          <mxGeometry x="390" y="110" width="80" height="80" as="geometry" />
        </mxCell>
        <mxCell id="KRQcS20CmdTBOLklNarJ-20" value="" style="edgeStyle=orthogonalEdgeStyle;rounded=0;orthogonalLoop=1;jettySize=auto;html=1;endArrow=none;startFill=0;" edge="1" parent="1" source="KRQcS20CmdTBOLklNarJ-18" target="KRQcS20CmdTBOLklNarJ-11">
          <mxGeometry relative="1" as="geometry" />
        </mxCell>
        <mxCell id="KRQcS20CmdTBOLklNarJ-49" value="1" style="edgeLabel;html=1;align=center;verticalAlign=middle;resizable=0;points=[];" vertex="1" connectable="0" parent="KRQcS20CmdTBOLklNarJ-20">
          <mxGeometry x="0.475" relative="1" as="geometry">
            <mxPoint y="-10" as="offset" />
          </mxGeometry>
        </mxCell>
        <mxCell id="KRQcS20CmdTBOLklNarJ-18" value="kann" style="rhombus;whiteSpace=wrap;html=1;" vertex="1" parent="1">
          <mxGeometry x="250" y="230" width="80" height="80" as="geometry" />
        </mxCell>
        <mxCell id="KRQcS20CmdTBOLklNarJ-33" value="" style="edgeStyle=orthogonalEdgeStyle;rounded=0;orthogonalLoop=1;jettySize=auto;html=1;endArrow=none;startFill=0;" edge="1" parent="1" source="KRQcS20CmdTBOLklNarJ-25" target="KRQcS20CmdTBOLklNarJ-11">
          <mxGeometry relative="1" as="geometry" />
        </mxCell>
        <mxCell id="KRQcS20CmdTBOLklNarJ-41" value="n" style="edgeLabel;html=1;align=center;verticalAlign=middle;resizable=0;points=[];" vertex="1" connectable="0" parent="KRQcS20CmdTBOLklNarJ-33">
          <mxGeometry x="-0.1417" y="-3" relative="1" as="geometry">
            <mxPoint as="offset" />
          </mxGeometry>
        </mxCell>
        <mxCell id="KRQcS20CmdTBOLklNarJ-25" value="bezieht sich auf" style="rhombus;whiteSpace=wrap;html=1;" vertex="1" parent="1">
          <mxGeometry x="110" y="340" width="80" height="80" as="geometry" />
        </mxCell>
        <mxCell id="KRQcS20CmdTBOLklNarJ-36" value="" style="edgeStyle=orthogonalEdgeStyle;rounded=0;orthogonalLoop=1;jettySize=auto;html=1;endArrow=none;startFill=0;" edge="1" parent="1" source="KRQcS20CmdTBOLklNarJ-26" target="KRQcS20CmdTBOLklNarJ-1">
          <mxGeometry relative="1" as="geometry" />
        </mxCell>
        <mxCell id="KRQcS20CmdTBOLklNarJ-39" value="n" style="edgeLabel;html=1;align=center;verticalAlign=middle;resizable=0;points=[];" vertex="1" connectable="0" parent="KRQcS20CmdTBOLklNarJ-36">
          <mxGeometry x="0.1083" y="-2" relative="1" as="geometry">
            <mxPoint as="offset" />
          </mxGeometry>
        </mxCell>
        <mxCell id="KRQcS20CmdTBOLklNarJ-26" value="hat" style="rhombus;whiteSpace=wrap;html=1;" vertex="1" parent="1">
          <mxGeometry x="390" y="340" width="80" height="80" as="geometry" />
        </mxCell>
        <mxCell id="KRQcS20CmdTBOLklNarJ-29" value="" style="edgeStyle=orthogonalEdgeStyle;rounded=0;orthogonalLoop=1;jettySize=auto;html=1;endArrow=none;startFill=0;" edge="1" parent="1" source="KRQcS20CmdTBOLklNarJ-27" target="KRQcS20CmdTBOLklNarJ-10">
          <mxGeometry relative="1" as="geometry" />
        </mxCell>
        <mxCell id="KRQcS20CmdTBOLklNarJ-32" value="n" style="edgeLabel;html=1;align=center;verticalAlign=middle;resizable=0;points=[];" vertex="1" connectable="0" parent="KRQcS20CmdTBOLklNarJ-29">
          <mxGeometry x="0.2738" y="-2" relative="1" as="geometry">
            <mxPoint x="10" y="-12" as="offset" />
          </mxGeometry>
        </mxCell>
        <mxCell id="KRQcS20CmdTBOLklNarJ-27" value="ist teil von" style="rhombus;whiteSpace=wrap;html=1;" vertex="1" parent="1">
          <mxGeometry x="554" y="-10" width="80" height="80" as="geometry" />
        </mxCell>
        <mxCell id="KRQcS20CmdTBOLklNarJ-48" value="0..n" style="text;html=1;align=center;verticalAlign=middle;resizable=0;points=[];autosize=1;strokeColor=none;fillColor=none;" vertex="1" parent="1">
          <mxGeometry x="330" y="240" width="40" height="30" as="geometry" />
        </mxCell>
      </root>
    </mxGraphModel>
  </diagram>
</mxfile>
